<svg xmlns="http://www.w3.org/2000/svg" xmlns:xlink="http://www.w3.org/1999/xlink" width="21" height="20" viewBox="0 0 21 20"><defs><path id="32mpa" d="M1530.3 54.61c.38.4.38 1.03 0 1.42l-3.63 3.67a.98.98 0 0 1-1.4 0 1 1 0 0 1 0-1.42l3.62-3.67a.98.98 0 0 1 1.4 0zm14.6-6.61c0 4.41-3.55 8-7.91 8a7.97 7.97 0 0 1-7.92-8c0-4.42 3.55-8 7.92-8 4.36 0 7.91 3.58 7.91 8zm-1.98 0c0-3.31-2.66-6-5.93-6a5.97 5.97 0 0 0-5.94 6c0 3.3 2.67 6 5.94 6 3.27 0 5.93-2.7 5.93-6z"/></defs><g><g transform="translate(-1524 -40)"><use fill="#464646" xlink:href="#32mpa"/></g></g></svg>