<svg xmlns="http://www.w3.org/2000/svg" xmlns:xlink="http://www.w3.org/1999/xlink" width="26" height="21" viewBox="0 0 26 21"><defs><path id="86jma" d="M1544.94 123.26l-3.02 9.5a1.6 1.6 0 0 1-1.53 1.1h-11.68c-.67 0-1.32-.4-1.55-1.03l-4.45-11.9h-2.58c-.63 0-1.13-.5-1.13-1.12 0-.62.5-1.12 1.13-1.12h3.36c.47 0 .9.32 1.06.75l4.61 12.18h10.75l2.42-7.6s-13.65.33-13.58.36c-1.18-.04-1.68-.2-1.62-1.63.05-1.06 1.62-.81 1.62-.81l15.12-.16a1.15 1.15 0 0 1 1.07 1.48zm-14.36 12.64c.35.34.54.8.54 1.28a1.82 1.82 0 0 1-1.83 1.82 1.82 1.82 0 0 1-1.3-3.1 1.86 1.86 0 0 1 2.6 0zm10.15 0c.34.34.54.8.54 1.28a1.82 1.82 0 0 1-1.84 1.82 1.82 1.82 0 0 1-1.3-3.1 1.86 1.86 0 0 1 2.6 0z"/></defs><g><g transform="translate(-1519 -118)"><use fill="#fff" xlink:href="#86jma"/></g></g></svg>